<?xml version="1.0" standalone="no"?>
<!DOCTYPE svg PUBLIC "-//W3C//DTD SVG 20010904//EN"
 "http://www.w3.org/TR/2001/REC-SVG-20010904/DTD/svg10.dtd">
<svg version="1.0" xmlns="http://www.w3.org/2000/svg"
 width="720.000000pt" height="720.000000pt" viewBox="0 0 720.000000 720.000000"
 preserveAspectRatio="xMidYMid meet">
<metadata>
Created by potrace 1.14, written by Peter Selinger 2001-2017
</metadata>
<g transform="translate(0.000000,720.000000) scale(0.100000,-0.100000)"
fill="#000000" stroke="none">
<path d="M4899 5546 c-2 -2 -38 -6 -80 -10 -121 -10 -161 -16 -259 -40 -48
-12 -186 -60 -194 -67 -6 -5 -16 -9 -24 -9 -18 0 -43 -11 -331 -152 -230 -113
-380 -178 -408 -178 -24 0 -20 -92 7 -181 18 -60 97 -187 122 -197 4 -2 8 -8
8 -14 0 -15 -60 31 -116 89 -34 35 -64 81 -90 137 l-39 84 -125 -63 c-260
-130 -483 -209 -708 -251 -123 -23 -209 -34 -367 -49 -102 -9 -651 -272 -990
-473 -371 -221 -556 -365 -794 -620 -120 -129 -117 -126 -255 -292 -200 -242
-220 -271 -212 -304 3 -13 8 -41 12 -62 30 -191 178 -487 325 -649 276 -305
622 -467 1179 -551 19 -3 44 -7 56 -9 11 -2 52 -6 90 -10 38 -4 80 -9 94 -11
113 -18 727 -26 925 -12 93 7 277 29 354 43 114 20 289 59 366 81 49 14 97 28
105 30 8 2 125 46 260 99 135 53 360 138 500 191 140 52 271 101 290 109 37
14 107 40 280 100 58 21 114 41 125 46 16 6 307 101 489 160 49 15 40 3 -11
-16 -27 -10 -68 -27 -93 -37 -57 -25 -64 -28 -185 -77 -145 -58 -664 -281
-775 -333 -90 -43 -130 -73 -142 -108 -5 -13 26 -15 241 -16 218 0 417 -8 506
-18 17 -2 68 -7 115 -11 47 -3 112 -8 145 -11 177 -15 387 -3 545 31 14 3 36
7 49 10 154 29 504 151 603 210 17 10 18 28 33 435 l3 85 91 93 c322 329 491
632 526 942 3 30 8 69 11 85 10 57 12 440 3 505 -16 116 -19 134 -35 195 -23
90 -55 174 -86 228 -15 26 -28 50 -28 53 0 3 -24 37 -53 77 -168 227 -454 431
-802 570 -61 25 -255 67 -435 96 -104 16 -131 20 -195 27 -33 3 -76 8 -95 10
-43 6 -526 14 -531 10z"/>
</g>
</svg>
